<svg version="1.1" id="Layer_1" opacity="0.8" xmlns="http://www.w3.org/2000/svg" viewBox="0 0 100 100" 
  stroke="#000000"
  stroke-width='5.37px'
	stroke-linejoin='round'
	stroke-linecap='round'
>

<line class="st0" x1="17.5" y1="89" x2="17.5" y2="11"/>
<line class="st1" x1="39.5" y1="88.5" x2="39.5" y2="11.5"/>
<line class="st1" x1="79.3" y1="89.6" x2="53.5" y2="11.5"/>
<path class="st2" d="M93.4,32.6L93.4,32.6l-7.2-7.2c4.2-5.1,3.4-12.7-1.7-16.9c-2.1-1.8-4.8-2.7-7.6-2.7c-6.6,0-12,5.4-12,12
	c0,6.6,5.4,12,12,12c2.8,0,5.5-1,7.6-2.7l7.2,7.2c0.5,0.4,1.3,0.4,1.7-0.2C93.7,33.6,93.7,33,93.4,32.6z M76.9,27.4
	c-5.3,0-9.6-4.3-9.6-9.6s4.3-9.6,9.6-9.6c5.3,0,9.6,4.3,9.6,9.6S82.2,27.4,76.9,27.4z"/>
</svg>
