<svg xmlns="http://www.w3.org/2000/svg" viewBox="0 0 100 100">
	<path className="App-logo" style="fill:#FFF;" d="M33.31,63.65h-3.5V71.6A17.29,17.29,0,0,0,46.72,88.93c8.9.23,14.53-4.14,16.69-13.17a29.81,29.81,0,0,0,.85-6.85c.07-15,0-30.11.06-45.17a1.93,1.93,0,0,0-1.22-2.08,8.54,8.54,0,0,1-4.38-9.72,8.7,8.7,0,1,1,12.57,9.73,2,2,0,0,0-1.24,2.07q.06,22.84,0,45.68a30.24,30.24,0,0,1-3.8,14.83c-3.83,6.84-9.82,10.13-17.54,10.4-12.37.42-21.82-7-24.5-19.22a4.59,4.59,0,0,1-.1-1V52.3c0-.2,0-.4.07-1ZM67.12,18a4,4,0,1,0-3.92-4.06A4,4,0,0,0,67.12,18Z"/>

</svg>