<?xml version="1.0" encoding="utf-8"?>
<!-- Generator: Adobe Illustrator 22.1.0, SVG Export Plug-In . SVG Version: 6.00 Build 0)  -->
<svg version="1.1" id="Layer_1" xmlns="http://www.w3.org/2000/svg" xmlns:xlink="http://www.w3.org/1999/xlink" x="0px" y="0px"
	 viewBox="0 0 90 90" style="enable-background:new 0 0 90 90;" xml:space="preserve">
<style type="text/css">
	.st0{fill:#FFFFFF;stroke:#000000;stroke-width:2;stroke-miterlimit:10;}
</style>
<path d="M39,9C22.5,9,9,22.5,9,39s13.5,30,30,30c6.9,0,13.6-2.4,19-6.8l17.9,17.9c1.2,1.2,3.1,1.2,4.2,0.1s1.2-3.1,0.1-4.2
	c0,0,0,0-0.1-0.1L62.2,58c4.4-5.3,6.8-12.1,6.8-19C69,22.5,55.5,9,39,9z M39,15c13.3,0,24,10.7,24,24S52.3,63,39,63S15,52.3,15,39
	S25.7,15,39,15z"/>
<circle class="st0" cx="39" cy="39" r="24"/>
</svg>
