<svg xmlns="http://www.w3.org/2000/svg" viewBox="0 0 100 100"

stroke='#FFFFFF'
	opacity="0.8"
	stroke-linejoin='round'
	stroke-width='5.37px'
	stroke-linecap='round'
>
	<defs>
		<style>.a,.b{fill:none;stroke-linecap:round;}.a,.b,.c{stroke:#000;stroke-miterlimit:10;}.a{stroke-width:5.37px;}.b{stroke-width:5.34px;}</style>
	</defs>
	<line class="a" x1="17.5" y1="89" x2="17.5" y2="11"/>
	<line class="b" x1="39.5" y1="88.5" x2="39.5" y2="11.5"/>
	<line class="b" x1="79.28" y1="89.55" x2="53.5" y2="11.5"/>
	<path class="c" d="M93.91,35.31c1.36-3.76.19-6.43-3.41-8.57-3.85-2.29-3.85-2.29-1.54-5.95a8.16,8.16,0,0,0-.19-8.74,7.14,7.14,0,0,0-12.89,3.81,7.79,7.79,0,0,0,2.43,6.56c1.3,1.29,1.15,2.21-.51,3a25.92,25.92,0,0,0-3.45,2c-2.72,1.92-3.63,4.88-2.19,7.77a8,8,0,0,1,4.74-8.07c4.39-2.28,4.31-2.43,1.36-6.56a8.17,8.17,0,0,1-.54-.85,6.6,6.6,0,0,1,1-7.63,5.77,5.77,0,0,1,6.87-1.28,5.84,5.84,0,0,1,3.28,6.64,14.67,14.67,0,0,1-2.56,4.71c-1,1.38-1.42,2.66.26,3.56C90.45,27.83,94.29,29.83,93.91,35.31Z"/>
</svg>